# xmcd
#
# Track frame offsets:
#	150
#	14907
#	28857
#	44321
#	60600
#	72863
#	87277
#	100308
#	112352
#	126138
#	140201
#	153236
#	166155
#	180992
#	194072
#	206907
#	220900
#	234039
#	248006
#	261647
#	275922
#	287762
#
# Disc length: 4036 seconds
#
# Revision: 0
# Processed by: cddbd v1.5.2PL0 Copyright (c) Steve Scherf et al.
# Submitted via: EasyCDDAExtractor 16.0.6.1
#
DISCID=5c0fc216
DTITLE=Πάνου Πόλυ - Μία κυρία από τα μπουζούκια-Π. Πάνου
DYEAR=1994
DGENRE=Λαϊκή
TTITLE0=Πάνου Πόλυ - Πάρε το δαχτυλίδι μου [Γ. Μητσάκη]
TTITLE1=Πάνου Πόλυ - Άναψε το τσιγάρο [Γ. Κλουβάτου-Χ. Βασιλειάδη]
TTITLE2=Πάνου Πόλυ-Μάριος - Τα δάκρυα [Γ. Ζαμπέτα-Γ. Παπανικολόπουλου]
TTITLE3=Πάνου Πόλυ-Μάριος - Φωτιά [Γ. Τατασσόπουλος]
TTITLE4=Πάνου Πόλυ - Της ταβέρνας το ρολόϊ [Β. Τσιτσάνη]
TTITLE5=Πάνου Πόλυ-Τατασσόπουλος Γ. - Μονότερμα [Μ. Χιώτη]
TTITLE6=Πάνου Πόλυ - Άλλα μού λέν' τα μάτια σου [Θ. Δερβενιώτη-Κ. Μάνεση]
TTITLE7=Πάνου Πόλυ - Στης αμαρτίας το στρατί [Χ. Κολοκοτρώνη]
TTITLE8=Πάνου Πόλυ-Τατασσόπουλος Γ. - Ήρθες αργά [Γ. Κοινούση]
TTITLE9=Πάνου Πόλυ - Γλυκειά μητέρα [Χ. Βασιλειάδη-Σ. Ζαφειρίου]
TTITLE10=Πάνου Πόλυ-Χρηστάκης - Τις θυσίες πού 'χω κάνει [Χ. Κολοκοτρώνη]
TTITLE11=Πάνου Πόλυ - Χωρισμός [Γ.νΖαμπέτα-Δ.νΧριστοδούλου]
TTITLE12=Πάνου Πόλυ - Ο αλήτης μου [Σ.νΠελαγίδη]
TTITLE13=Πάνου Πόλυ - Εγώ δεν θέλω δώρα [Χ. Κολοκοτρώνη]
TTITLE14=Πάνου Πόλυ - Φέρτε μου να πιω [Σ. Πελαγίδη]
TTITLE15=Πάνου Πόλυ-Χρηστάκης - Με μάτια δακρυσμένα [Κ. Πολίτη-Π. Νικολάου]
TTITLE16=Πάνου Πόλυ - Αν θες να μάθεις (Ντόλτσε βίτα) [Δ. Ευσταθίου]
TTITLE17=Πάνου Πόλυ - Δεν σ' αλλάζω, δεν σ' αλλάζω [Δ. Ευσταθίου]
TTITLE18=Πάνου Πόλυ - Μη με σπρώχνεις μέσ' στο βούρκο κοινωνία[Σ.Σιδέρη-Σ.Χρυσ
TTITLE18=ίνη-Θ.Γελαδάκη]
TTITLE19=Πάνου Πόλυ - Το λες, μα δεν το κάνεις [Ν. Πετρά-Ι. Χανιώτη]
TTITLE20=Πάνου Πόλυ - Μ' έχεις αδικήσει [Γ. Κοινούση]
TTITLE21=Πάνου Πόλυ - Πάμε σε κέντρα κοσμικά [Γ. Πολίτη-Η. Ωρολογά]
EXTD=
EXTT0=
EXTT1=
EXTT2=
EXTT3=
EXTT4=
EXTT5=
EXTT6=
EXTT7=
EXTT8=
EXTT9=
EXTT10=
EXTT11=
EXTT12=
EXTT13=
EXTT14=
EXTT15=
EXTT16=
EXTT17=
EXTT18=
EXTT19=
EXTT20=
EXTT21=
PLAYORDER=
